# xmcd
#
# Track frame offsets: 
#        150
#        12353
#        26510
#        39970
#        54287
#        69234
#        81381
#        94803
#        106672
#        118464
#        132189
#        144580
#        155470
#        166356
#        180583
#        209278
#        220196
#        232423
#        243637
#        257390
#        268677
#        279755
#        291059
#        302078
#
# Disc length: 4415 seconds
#
# Revision: 0
# Processed by: cddbd v1.5.2PL0 Copyright (c) Steve Scherf et al.
# Submitted via: ExactAudioCopy v0.99pb4
#
DISCID=53113d18
DTITLE=Freddy King - Just Pickin'
DYEAR=1989
DGENRE=Blues
TTITLE0=Hide Away
TTITLE1=Butterscotch
TTITLE2=Sen-Sa-Shun
TTITLE3=Side Tracked
TTITLE4=The Stumble
TTITLE5=Wash Out
TTITLE6=San-Ho-Zay
TTITLE7=Just Pickin'
TTITLE8=Heads Up
TTITLE9=In The Open
TTITLE10=Out Front
TTITLE11=Swooshy
TTITLE12=Manhole
TTITLE13=Freeway 75
TTITLE14=Low Tide
TTITLE15=The Sad Nite Owl
TTITLE16=Funnybone
TTITLE17=Nickleplated
TTITLE18=King-A-Ling
TTITLE19=Surf Monkey
TTITLE20=Freddy's Midnite Dream
TTITLE21=Fish Fare
TTITLE22=Cloud Sailin'
TTITLE23=Remington Ride
EXTD=
EXTT0=
EXTT1=
EXTT2=
EXTT3=
EXTT4=
EXTT5=
EXTT6=
EXTT7=
EXTT8=
EXTT9=
EXTT10=
EXTT11=
EXTT12=
EXTT13=
EXTT14=
EXTT15=
EXTT16=
EXTT17=
EXTT18=
EXTT19=
EXTT20=
EXTT21=
EXTT22=
EXTT23=
PLAYORDER=
